
<?xml version="1.0" encoding="utf-8"?>
<svg xmlns="http://www.w3.org/2000/svg" xmlns:xlink="http://www.w3.org/1999/xlink">
    <symbol fill="none" viewBox="0 0 40 26" id="CA" xmlns="http://www.w3.org/2000/svg">
        <g clip-path="url(#aa)">
            <path fill="#fff" d="M0 0h40v26H0z" />
            <path fill="#fff" d="M0 0h40v26H0z" />
            <path
                d="M12 0H-1v26h13V0ZM41 0H28v26h13V0ZM23.5 14.875l3.5-1.75-1.75-.875V10.5l-3.5 1.75 1.75-3.5h-1.75L20 6.125 18.25 8.75H16.5l1.75 3.5-3.5-1.75v1.75l-1.75.875 3.5 1.75-.875 1.75h3.5v2.625h1.75v-2.625h3.5l-.875-1.75Z"
                fill="#D80027" />
        </g>
        <defs>
            <clipPath id="aa">
                <path fill="#fff" d="M0 0h40v26H0z" />
            </clipPath>
        </defs>
    </symbol>
    <symbol fill="none" viewBox="0 0 40 26" id="CS" xmlns="http://www.w3.org/2000/svg">
        <path fill="#fff" d="M0 0h40v26H0z" />
        <path fill="#D7141A" d="M0 0h40v26H0z" />
        <path fill="#fff" d="M0 0h40v13H0z" />
        <path d="M20 13 0 0v26l20-13Z" fill="#11457E" />
    </symbol>
    <symbol fill="none" viewBox="0 0 40 26" id="DE" xmlns="http://www.w3.org/2000/svg">
        <path fill="#fff" d="M0 0h40v26H0z" />
        <path d="M40 0H0v26h40V0Z" fill="#D80027" />
        <path d="M40 0H0v8.666h40V0Z" fill="#000" />
        <path d="M40 17.333H0v8.666h40v-8.666Z" fill="#FFDA44" />
    </symbol>
    <symbol fill="none" viewBox="0 0 40 26" id="EN" xmlns="http://www.w3.org/2000/svg">
        <path fill="#fff" d="M0 0h40v26H0z" />
        <path fill="#00247D" d="M0 0h40v26H0z" />
        <path d="M0 20 40 0v6L0 26v-6Z" fill="#fff" />
        <path d="m0 23 12-6h4L0 25v-2ZM40 3 28 9h-4l16-8v2Z" fill="#CF142B" />
        <path d="M40 20 0 0v6l40 20v-6Z" fill="#fff" />
        <path d="m40 21-12-6h-4l16 8v-2ZM0 5l12 6h4L0 3v2Z" fill="#CF142B" />
        <path fill="#fff" d="M15.678 0h8.644v26h-8.644z" />
        <path fill="#fff" d="M0 17.322V8.678h40v8.644z" />
        <path fill="#CF142B" d="M0 15.602v-5.203h40v5.203z" />
        <path fill="#CF142B" d="M17.398 0h5.203v26h-5.203z" />
    </symbol>
    <symbol fill="none" viewBox="0 0 40 26" id="ES" xmlns="http://www.w3.org/2000/svg">
        <path fill="#fff" d="M0 0h40v26H0z" />
        <path
            d="M39.964 12.936c.007-.108.014-.216.014-.325 0-1.049.015-2.981.015-2.981l-.015-.963H0l.014.963S0 11.563 0 12.612c0 0 .007.761.016.87.002 1.026-.002 2.133-.002 2.133l.002 1.718h39.977c.028-.647-.037-1.038-.029-1.718.013-1.078.013-.115 0-2.68Z"
            fill="#FEC01B" />
        <path fill="#BF2126" d="M0 17.333h40V26H0zM0 0h40v8.667H0z" />
    </symbol>
    <symbol fill="none" viewBox="0 0 40 26" id="FI" xmlns="http://www.w3.org/2000/svg">
        <path d="M40 0H0v26h40V0Z" fill="#fff" />
        <path d="M40 9.455H0v7.09h40v-7.09Z" fill="#003580" />
        <path d="M17.778 0H11.11v26h6.667V0Z" fill="#003580" />
    </symbol>
    <symbol fill="none" viewBox="0 0 40 26" id="FR" xmlns="http://www.w3.org/2000/svg">
        <g clip-path="url(#ga)">
            <path fill="#fff" d="M0 0h40v26H0z" />
            <path d="M26.667 0v26H13.333V0h13.334Z" fill="#fff" />
            <path d="M40 0v26H26.667V0H40Z" fill="#ED2939" />
            <path d="M13.333 0v26H0V0h13.333Z" fill="#002395" />
        </g>
        <defs>
            <clipPath id="ga">
                <path fill="#fff" d="M0 0h40v26H0z" />
            </clipPath>
        </defs>
    </symbol>
    <symbol fill="none" viewBox="0 0 40 40" id="HI" xmlns="http://www.w3.org/2000/svg">
        <path fill="#fff" d="M0 13h40v14H0z" />
        <path
            d="M18.221 16.02a.335.335 0 1 0 .002-.67.335.335 0 0 0-.002.67ZM17.148 16.622a.335.335 0 1 0 0-.67.335.335 0 0 0 0 .67ZM16.275 17.492a.335.335 0 1 0 .001-.67.335.335 0 0 0 0 .67ZM15.671 18.562a.335.335 0 1 0 .001-.67.335.335 0 0 0 0 .67ZM15.336 19.766a.335.335 0 1 0 0-.67.335.335 0 0 0 0 .67ZM15.336 20.97a.335.335 0 1 0 0-.67.335.335 0 0 0 0 .67ZM15.671 22.174a.335.335 0 1 0 .001-.67.335.335 0 0 0 0 .67ZM16.275 23.244a.335.335 0 1 0 .001-.67.335.335 0 0 0 0 .67ZM17.148 24.113a.335.335 0 1 0 0-.67.335.335 0 0 0 0 .67ZM18.221 24.715a.335.335 0 1 0 .002-.67.335.335 0 0 0-.002.67ZM19.362 24.983a.335.335 0 1 0 .002-.67.335.335 0 0 0-.002.67ZM20.302 24.715c0-.2.134-.334.268-.401.202 0 .336.134.403.267 0 .201-.134.335-.268.402-.269.066-.403-.067-.403-.268ZM21.779 24.715a.335.335 0 1 0 0-.67.335.335 0 0 0 0 .67ZM22.852 24.113a.335.335 0 1 0 .001-.67.335.335 0 0 0 0 .67ZM23.725 23.244a.335.335 0 1 0 .001-.67.335.335 0 0 0-.001.67ZM24.329 22.174a.335.335 0 1 0 .001-.67.335.335 0 0 0-.001.67ZM24.664 20.97a.335.335 0 1 0 .002-.67.335.335 0 0 0-.002.67ZM24.664 19.766a.453.453 0 0 1-.402-.268c0-.2.134-.334.268-.4.201 0 .336.133.403.267.067.2-.067.334-.269.4ZM24.329 18.562a.335.335 0 1 0 .001-.67.335.335 0 0 0-.001.67ZM23.725 17.492a.335.335 0 1 0 .001-.67.335.335 0 0 0-.001.67ZM22.852 16.622a.335.335 0 1 0 .002-.67.335.335 0 0 0-.002.67ZM22.114 15.82c-.067.2-.268.267-.47.2-.201-.066-.268-.267-.201-.468.067-.2.268-.267.47-.2.201.134.268.334.201.468Zm-1.208-.401c0 .2-.201.334-.403.267-.201 0-.335-.2-.268-.401 0-.2.201-.335.403-.268.2.067.335.268.268.402Zm-1.208-.067c0 .2-.134.334-.268.401a.453.453 0 0 1-.403-.267c0-.201.134-.335.268-.402.202-.067.403.067.403.268ZM19.966 21.037c.556 0 1.007-.45 1.007-1.004s-.45-1.003-1.007-1.003c-.556 0-1.006.45-1.006 1.003 0 .554.45 1.004 1.006 1.004Z"
            fill="#428BC1" />
        <path
            d="m19.966 15.352-.134 2.876.134 1.805.202-1.805-.202-2.876Zm-1.208.134.604 2.875.604 1.672-.268-1.805-.94-2.742ZM17.617 15.954l1.343 2.608 1.006 1.471-.738-1.672-1.61-2.407Zm-.94.735 1.947 2.207 1.342 1.137-1.14-1.404-2.148-1.94ZM15.94 17.693l2.416 1.605 1.61.735-1.476-1.07-2.55-1.27Z"
            fill="#428BC1" />
        <path
            d="m15.47 18.83 2.751.869 1.745.334-1.677-.602-2.82-.601Zm-.202 1.203 2.953.134 1.745-.134-1.745-.133-2.953.133ZM15.47 21.237l2.819-.602 1.677-.602-1.745.335-2.751.87Zm.47 1.137 2.55-1.27 1.476-1.07-1.61.735-2.416 1.605Z"
            fill="#428BC1" />
        <path
            d="m16.678 23.31 2.148-1.872 1.14-1.405-1.342 1.137-1.946 2.14Zm.94.803 1.61-2.474.738-1.606-1.006 1.472-1.343 2.608Z"
            fill="#428BC1" />
        <path
            d="m18.758 24.581.94-2.742.268-1.806-.604 1.672-.604 2.876Zm1.208.134.202-2.876-.202-1.806-.134 1.806.134 2.876Zm1.208-.134-.536-2.875-.672-1.673.336 1.806.872 2.742ZM22.315 24.113l-1.275-2.608-1.074-1.472.806 1.672 1.543 2.408Zm1.007-.802-1.946-2.14-1.41-1.138 1.208 1.405 2.148 1.873Z"
            fill="#428BC1" />
        <path
            d="m24.06 22.374-2.416-1.605-1.678-.736 1.477 1.07 2.617 1.271Zm.47-1.137-2.752-.87-1.812-.334 1.745.602 2.82.602Zm.134-1.204-2.886-.2-1.812.2 1.813.134 2.885-.134Zm-.134-1.203-2.819.602-1.745.601 1.813-.334 2.751-.87Z"
            fill="#428BC1" />
        <path
            d="m24.06 17.693-2.617 1.27-1.477 1.07 1.678-.735 2.416-1.605Zm-.738-.937-2.148 1.873-1.208 1.404 1.41-1.137 1.946-2.14Z"
            fill="#428BC1" />
        <path
            d="m22.315 15.954-1.543 2.474-.806 1.605 1.074-1.47 1.275-2.61ZM21.242 15.486l-.94 2.742-.336 1.805.672-1.672.604-2.875Z"
            fill="#428BC1" />
        <path fill="#F2B200" d="M0 0h40v13H0z" />
        <path fill="#83BF4F" d="M0 27h40v13H0z" />
    </symbol>
    <symbol fill="none" viewBox="0 0 40 40" id="JA" xmlns="http://www.w3.org/2000/svg">
        <circle cx="20" cy="20" r="20" fill="#fff" />
        <circle cx="20" cy="20" r="9" fill="#BC002D" />
    </symbol>
    <symbol fill="none" viewBox="0 0 40 26" id="KK" xmlns="http://www.w3.org/2000/svg">
        <path fill="#82C3D2" d="M0 0h40v26H0z" />
        <path
            d="M19.739 14.573a3.535 3.535 0 1 0 0-7.07 3.535 3.535 0 0 0 0 7.07ZM20.004 6.531a.265.265 0 1 1-.53 0c0-.146.265-.795.265-.795s.265.649.265.795ZM19.474 15.545a.265.265 0 0 1 .53 0c0 .147-.265.796-.265.796s-.265-.65-.265-.796ZM24.247 11.303a.265.265 0 0 1 0-.53c.146 0 .795.265.795.265s-.649.265-.796.265ZM15.232 10.773a.265.265 0 1 1 0 .53c-.146 0-.795-.265-.795-.265s.649-.265.795-.265ZM23.114 8.039a.265.265 0 0 1-.375-.375c.104-.104.75-.375.75-.375s-.271.646-.375.75ZM16.365 14.038a.265.265 0 1 1 .375.375c-.104.104-.75.375-.75.375s.271-.646.375-.75ZM22.739 14.413a.265.265 0 0 1 .375-.375c.104.103.375.75.375.75s-.646-.272-.75-.375ZM16.74 7.664a.265.265 0 1 1-.375.375c-.104-.104-.375-.75-.375-.75s.646.271.75.375ZM18.26 6.773a.265.265 0 1 1-.49.202c-.056-.135-.06-.836-.06-.836s.493.498.55.634ZM21.22 15.304a.265.265 0 1 1 .49-.203c.055.135.059.836.059.836s-.494-.498-.55-.633ZM24.005 9.558a.265.265 0 1 1-.203-.49c.135-.056.836-.059.836-.059s-.498.493-.633.55ZM15.474 12.518a.265.265 0 1 1 .203.49c-.136.056-.837.06-.837.06s.498-.494.634-.55ZM21.71 6.976a.265.265 0 0 1-.49-.203c.055-.136.549-.634.549-.634s-.004.701-.06.837ZM17.77 15.1a.265.265 0 0 1 .49.204c-.057.135-.55.633-.55.633s.003-.7.06-.836ZM23.802 13.008a.265.265 0 0 1 .203-.49c.135.056.633.55.633.55s-.7-.004-.836-.06ZM15.677 9.069a.265.265 0 0 1-.203.49c-.136-.057-.634-.55-.634-.55s.701.003.837.06ZM19.12 6.566a.265.265 0 1 1-.52.103c-.029-.143.105-.832.105-.832s.387.585.415.729ZM20.359 15.51a.265.265 0 1 1 .52-.103c.028.144-.105.832-.105.832s-.387-.585-.415-.728ZM24.212 10.419a.265.265 0 1 1-.104-.52c.144-.029.832.105.832.105s-.585.386-.728.415ZM15.267 11.658a.265.265 0 1 1 .103.52c-.143.028-.831-.105-.831-.105s.584-.387.728-.415ZM22.464 7.438a.265.265 0 1 1-.44-.295c.08-.122.661-.514.661-.514s-.14.687-.221.809ZM17.015 14.639a.265.265 0 1 1 .44.294c-.08.122-.662.514-.662.514s.14-.687.222-.808ZM23.34 13.763a.265.265 0 1 1 .294-.441c.122.081.514.662.514.662s-.686-.14-.808-.221ZM16.139 8.314a.265.265 0 1 1-.295.44c-.121-.08-.514-.662-.514-.662s.687.14.809.222ZM17.456 7.143a.265.265 0 0 1-.441.295c-.082-.122-.222-.809-.222-.809s.581.393.663.514ZM22.023 14.933a.265.265 0 0 1 .44-.294c.082.121.222.808.222.808s-.58-.392-.662-.514ZM23.634 8.755a.265.265 0 0 1-.294-.441c.121-.082.808-.222.808-.222s-.392.581-.514.663ZM15.844 13.322a.265.265 0 0 1 .295.44c-.122.082-.808.222-.808.222s.392-.58.513-.662ZM20.879 6.67a.265.265 0 1 1-.52-.104c.028-.144.415-.729.415-.729s.133.689.105.832ZM18.6 15.407a.265.265 0 1 1 .52.104c-.029.143-.415.728-.415.728s-.133-.688-.105-.832ZM24.108 12.178a.265.265 0 1 1 .104-.52c.143.028.728.415.728.415s-.688.133-.832.105ZM15.37 9.899a.265.265 0 1 1-.103.52c-.144-.029-.728-.415-.728-.415s.688-.134.831-.105Z"
            fill="#FFE15A" />
        <path
            d="M28.054 11.968a.203.203 0 0 0-.265.11l-.011.028c-.154.358-.47.88-.79 1.373.297-.96.57-1.985.59-2.057a.203.203 0 0 0-.392-.107c-.14.499-.424 1.155-.686 1.71.048-.619.057-1.193.058-1.234a.203.203 0 0 0-.195-.206c-.103.003-.202.079-.21.188-.26 3.571-3.696 5.168-4.03 5.315-.175.018-.99.11-1.73.366-.085.03-.156.059-.227.088a.205.205 0 0 0-.085-.014c-2.27.165-4.082-.767-5.383-2.763a9.753 9.753 0 0 1-1.295-3.107.202.202 0 1 0-.398.075c.008.044.143.735.516 1.644a8.519 8.519 0 0 1-.969-2.237c-.002-.01-.008-.018-.012-.027-.006-.014-.01-.028-.02-.04-.005-.009-.013-.015-.02-.022-.011-.012-.022-.024-.035-.032-.008-.005-.017-.008-.025-.012a.191.191 0 0 0-.046-.017c-.012-.002-.024 0-.036 0-.012-.001-.023-.004-.036-.002l-.007.003h-.008c-.01.003-.02.01-.03.014-.012.005-.025.01-.036.017-.01.008-.019.018-.028.027-.009.01-.018.017-.026.028-.007.011-.01.024-.016.036-.005.011-.01.023-.013.035-.002.014-.001.027-.001.04 0 .012-.003.022-.001.033l.003.015v.003c.126.74.425 1.505.695 2.09-.429-.488-.788-1.049-.915-1.381-.003-.01-.01-.017-.016-.025-.007-.014-.014-.027-.024-.039l-.024-.02c-.012-.009-.024-.019-.039-.026-.009-.004-.018-.006-.028-.009-.015-.004-.03-.009-.046-.01-.012 0-.024.002-.037.004-.012.001-.023 0-.035.004l-.006.003h-.006c-.011.005-.02.013-.029.019-.012.007-.024.012-.034.021-.01.01-.017.02-.025.031-.007.01-.016.02-.021.031-.006.012-.008.025-.012.037-.003.013-.007.025-.008.038-.001.013.002.026.004.04.001.01 0 .022.003.033.221.712.752 1.558 1.167 2.155a4.683 4.683 0 0 1-.675-.643l-.023-.028a.203.203 0 0 0-.315.255l.045.054c.304.362.635.7.935.985l-.41-.175a.202.202 0 0 0-.201.348c.04.03.767.573 1.396.894-.059.004-.129 0-.207-.006a.203.203 0 0 0-.092.39c.016.006.208.085.445.17a.202.202 0 0 0-.025.362c.021.012.308.177.662.322a.203.203 0 0 0 .055.277c.062.043 1.439.978 3.047.978.105 0 .212-.004.32-.013a.203.203 0 1 0-.033-.404c-1.01.083-1.984-.297-2.563-.587.077-.018.12-.035.132-.04a.203.203 0 0 0-.072-.39c-.235-.005-.56-.12-.841-.243.106-.052.167-.103.173-.108a.203.203 0 0 0-.097-.356 2.558 2.558 0 0 1-.306-.076.424.424 0 0 0 .174-.167.203.203 0 0 0-.139-.29 1.185 1.185 0 0 1-.178-.055.203.203 0 0 0-.018-.304 11.925 11.925 0 0 1-.4-.332.202.202 0 0 0 .087-.316 14.574 14.574 0 0 1-.38-.505c.072.055.144.112.216.158a.204.204 0 0 0 .25-.025.203.203 0 0 0 .039-.052c.123.131.252.25.388.352.018.014.039.014.059.02.057.097.117.193.18.29 1.231 1.894 2.967 2.909 5.049 2.97-.192.116-.4.236-.73.364a4.81 4.81 0 0 0-.199.085.193.193 0 0 0-.084.036c-.575.266-.813.53-.91.713-.096.183-.013.371.105.468a.206.206 0 0 0 .223.024.208.208 0 0 0 .116-.19c.009-.01.044-.04.154-.043.08-.006.25.012.448.028.188.015.414.033.654.045l-.325.378a.202.202 0 0 0 .161.335c.16-.006.27-.009.34-.01a.344.344 0 0 0 .189.126c.14.036.278-.02.383-.086a.5.5 0 0 0 .22.09.644.644 0 0 0 .368-.068c.098.063.195.08.268.08h.003a.671.671 0 0 0 .395-.153c.086.052.17.068.233.071a.595.595 0 0 0 .346-.103c.285.057.532-.077.694-.226a.362.362 0 0 0 .201.052.47.47 0 0 0 .326-.172c.324.039.556-.02.69-.18a.484.484 0 0 0 .112-.274c.898-.005.98-.496.986-.556a.202.202 0 0 0-.189-.224l-2.356-.142a.2.2 0 0 0-.21.155c0 .002-.04.151-.166.271-.169.161-.44.247-.737.292a.202.202 0 0 0-.275-.198c-.487.189-1.274.165-1.89.122.094-.077.208-.153.299-.203a.203.203 0 0 0 .102-.216c-.012-.062-.057-.106-.112-.134.171-.086.312-.17.445-.251.231-.142.45-.276.848-.414.768-.267 1.657-.348 1.666-.349a.202.202 0 0 0 .058-.014c.032-.013 2.54-1.063 3.72-3.487-.015.073-.031.14-.05.199a.202.202 0 0 0 .332.209 3.053 3.053 0 0 1-.197.443.203.203 0 0 0 .128.302 6.37 6.37 0 0 1-.276.377.203.203 0 0 0 .006.26c-.159.166-.3.303-.406.39a.203.203 0 0 0-.06.233 1.36 1.36 0 0 1-.248.118.202.202 0 0 0-.059.359c-.124.033-.26.065-.407.094a.203.203 0 0 0-.06.375c.006.004.075.043.181.088-.392.158-1.092.364-2.241.478a.203.203 0 0 0-.182.221c.01.112.107.189.221.183 2.182-.216 2.855-.762 2.883-.786a.203.203 0 0 0-.037-.335c.697-.219.996-.462 1.012-.475a.203.203 0 0 0 .045-.259c-.05-.086-.156-.123-.248-.086a.811.811 0 0 1-.12.03 25.874 25.874 0 0 0 1.287-.953.202.202 0 0 0-.257-.314l-.098.077c-.1.075-.23.16-.37.247a52.377 52.377 0 0 0 1.217-1.444l.042-.051a.203.203 0 0 0-.316-.255v.001l-.05.062c-.16.195-.329.384-.495.56a23.78 23.78 0 0 0 1.017-2.103.202.202 0 0 0-.11-.264Zm-9.501 6.834.055.007a.957.957 0 0 0-.167.208 7.986 7.986 0 0 0-.252-.017 2.99 2.99 0 0 1 .364-.198Z"
            fill="#FFE15A" />
    </symbol>
    <symbol fill="none" viewBox="0 0 40 26" id="NL" xmlns="http://www.w3.org/2000/svg">
        <g clip-path="url(#ka)">
            <path fill="#fff" d="M0 0h40v26H0z" />
            <path d="M0 8.667h40v8.666H0V8.667Z" fill="#fff" />
            <path d="M0 0h40v8.667H0V0Z" fill="#AE1C28" />
            <path d="M0 17.333h40V26H0v-8.667Z" fill="#21468B" />
        </g>
        <defs>
            <clipPath id="ka">
                <path fill="#fff" d="M0 0h40v26H0z" />
            </clipPath>
        </defs>
    </symbol>
    <symbol fill="none" viewBox="0 0 40 26" id="NO" xmlns="http://www.w3.org/2000/svg">
        <path fill="#fff" d="M0 0h40v26H0z" />
        <path fill="#EF2B2D" d="M0 0h40v26H0z" />
        <path fill="#fff" d="M0 9.357h40v7.285H0z" />
        <path fill="#fff" d="M10.861 26V0h7.285v26z" />
        <path fill="#002868" d="M0 11.2h40v3.6H0z" />
        <path fill="#002868" d="M12.704 26V0h3.6v26z" />
    </symbol>
    <symbol fill="none" viewBox="0 0 40 26" id="PL" xmlns="http://www.w3.org/2000/svg">
        <path fill="#fff" d="M0 0h40v26H0z" />
        <path d="M0 13h40v13H0V13Z" fill="#FF4B55" />
        <path d="M40 13H0V0h40v13Z" fill="#F5F5F5" />
    </symbol>
    <symbol fill="none" viewBox="0 0 40 25" id="PT" xmlns="http://www.w3.org/2000/svg">
        <path fill="#009B3A" d="M0 0h40v25H0z" />
        <path d="m3.024 12.537 16.743 10.658 16.695-10.732L19.719 1.805 3.024 12.537Z"
            fill="#FEDF00" />
        <path d="M19.758 19.569a7.069 7.069 0 1 0-.031-14.138 7.069 7.069 0 0 0 .031 14.138Z"
            fill="#002776" />
        <path
            d="M19.727 5.431c-2.151.005-4.055.993-5.342 2.47l10.777 9.136a7.009 7.009 0 0 0 1.65-4.553c-.01-3.872-3.213-7.061-7.085-7.053Z"
            fill="#021E47" />
        <path
            d="M13.258 9.682a7.022 7.022 0 0 0-.376 1.11 16.252 16.252 0 0 1 2.922-.25 16.048 16.048 0 0 1 10.7 4.025c.109-.356.19-.724.241-1.1a17.077 17.077 0 0 0-11.005-3.97c-.843.002-1.671.066-2.482.185Z"
            fill="#fff" />
    </symbol>
    <symbol fill="none" viewBox="0 0 40 26" id="RU" xmlns="http://www.w3.org/2000/svg">
        <path fill="#fff" d="M0 0h40v26H0z" />
        <path d="M0 0h40v8.667H0V0Z" fill="#fff" />
        <path d="M0 8.667h40v8.666H0V8.667Z" fill="#00F" />
        <path d="M0 17.333h40V26H0v-8.667Z" fill="red" />
    </symbol>
    <symbol fill="none" viewBox="0 0 40 26" id="SV" xmlns="http://www.w3.org/2000/svg">
        <path d="M40 0H0v26h40V0Z" fill="#005293" />
        <path d="M40 10H0v6h40v-6Z" fill="#FECB00" />
        <path d="M17.5 0h-5v26h5V0Z" fill="#FECB00" />
    </symbol>
    <symbol fill="none" viewBox="0 0 40 26" id="TR" xmlns="http://www.w3.org/2000/svg">
        <path fill="#fff" d="M0 0h40v26H0z" />
        <path d="M30.978 26H40V0H0v26h30.978Z" fill="#FF5E4C" />
        <path
            d="m23.392 11.392 1.339.454L25.864 11l-.018 1.414L27 13.23l-1.35.42-.42 1.35-.816-1.154-1.414.018.846-1.134-.454-1.338Z"
            fill="#fff" />
        <path
            d="M20.149 17.154c1.066 0 2.09-.428 2.851-1.191-1.319 2.368-4.037 3.533-6.619 2.838C13.799 18.104 12 15.723 12 13c0-2.723 1.799-5.105 4.381-5.8 2.582-.696 5.3.47 6.619 2.837a4.013 4.013 0 0 0-4.911-.619c-1.586.948-2.353 2.862-1.872 4.671.482 1.81 2.093 3.065 3.932 3.065Z"
            fill="#fff" />
    </symbol>
    <symbol fill="none" viewBox="0 0 40 26" id="UK" xmlns="http://www.w3.org/2000/svg">
        <path fill="#fff" d="M0 0h40v26H0z" />
        <path d="M0 13h40v13H0V13Z" fill="#FFD500" />
        <path d="M40 13H0V0h40v13Z" fill="#005BBB" />
    </symbol>
    <symbol fill="none" viewBox="0 0 40 26" id="UZ" xmlns="http://www.w3.org/2000/svg">
        <path fill="#fff" d="M0 0h40v26H0z" />
        <path d="M40 0H0v26h40V0Z" fill="#D80027" />
        <path d="M40 18H0v8h40v-8Z" fill="#6DA544" />
        <path d="M39 0H0v7.961h39V0Z" fill="#338AF3" />
        <path d="M40 10H0v6h40v-6Z" fill="#F0F0F0" />
        <path d="M40 0H0v7.961h40V0Z" fill="#338AF3" />
        <path
            d="M15.09 3.98c0-1.217.856-2.235 1.998-2.484a2.543 2.543 0 1 0 0 4.969A2.544 2.544 0 0 1 15.09 3.98ZM18.592 5.136l.172.53h.557l-.45.328.172.53-.451-.328-.451.328.172-.53-.45-.328h.556l.173-.53ZM20.37 5.136l.172.53h.558l-.451.328.172.53-.45-.328-.452.328.173-.53-.451-.328h.557l.172-.53ZM22.149 5.136l.172.53h.557l-.45.328.171.53-.45-.328-.451.328.172-.53-.45-.328h.556l.173-.53ZM23.927 5.136l.172.53h.558l-.451.328.172.53-.45-.328-.452.328.173-.53-.451-.328h.557l.172-.53ZM25.706 5.136l.172.53h.557l-.45.328.172.53-.451-.328-.451.328.172-.53-.45-.328h.556l.173-.53ZM20.37 3.287l.172.53h.558l-.451.327.172.53-.45-.328-.452.328.173-.53-.451-.328h.557l.172-.53ZM22.149 3.287l.172.53h.557l-.45.327.171.53-.45-.328-.451.328.172-.53-.45-.328h.556l.173-.53ZM23.927 3.287l.172.53h.558l-.451.327.172.53-.45-.328-.452.328.173-.53-.451-.328h.557l.172-.53ZM25.706 3.287l.172.53h.557l-.45.327.172.53-.451-.328-.451.328.172-.53-.45-.328h.556l.173-.53ZM22.149 1.437l.172.53h.557l-.45.327.171.53-.45-.327-.451.327.172-.53-.45-.327h.556l.173-.53ZM23.927 1.437l.172.53h.558l-.451.327.172.53-.45-.327-.452.327.173-.53-.451-.327h.557l.172-.53ZM25.706 1.437l.172.53h.557l-.45.327.172.53-.451-.327-.451.327.172-.53-.45-.327h.556l.173-.53Z"
            fill="#F0F0F0" />
    </symbol>
</svg>